<svg width="2477" height="529" viewBox="0 0 2477 529" fill="none" xmlns="http://www.w3.org/2000/svg">
<g filter="url(#filter0_d_133_203)">
<path d="M73.5137 463.164H2436.3V473.974H73.5127L59.459 488.027L40 468.568L59.459 449.109L73.5137 463.164ZM2064.11 430.514H2042.11L2012.61 162.514C1925.61 349.181 1881.94 442.514 1881.61 442.514L1750.61 162.514L1721.11 430.514H1699.11L1737.11 85.5137L1881.61 394.014L2026.11 85.5137L2064.11 430.514ZM1478.7 386.514V97.0137H1500.7V439.014L1220.7 146.014V430.514H1198.7V93.5137L1478.7 386.514ZM968.472 92.5137C1006.8 92.5137 1041.64 104.514 1072.97 128.514C1088.3 140.514 1101.64 154.514 1112.97 170.514L1095.47 184.514C1087.47 170.847 1076.8 158.514 1063.47 147.514C1035.47 124.18 1003.64 112.514 967.972 112.514C925.305 112.514 889.472 127.347 860.472 157.014C831.805 186.681 817.472 222.847 817.472 265.514C817.472 307.514 831.639 343.181 859.972 372.514C888.305 401.514 923.805 416.014 966.472 416.014C992.805 416.014 1016.14 410.514 1036.47 399.514C1057.14 388.181 1072.47 374.847 1082.47 359.514C1095.8 338.847 1103.14 315.847 1104.47 290.514H986.472V270.514H1126.47C1126.47 314.514 1115.14 351.014 1092.47 380.014C1063.14 417.347 1021.3 436.014 966.972 436.014C917.639 436.014 876.472 419.847 843.472 387.514C810.805 355.181 794.472 314.181 794.472 264.514C794.472 215.514 811.139 174.68 844.472 142.014C878.139 109.014 919.472 92.5137 968.472 92.5137ZM242.882 117.014H129.882V430.514H107.882V97.0137H242.882V117.014ZM359.007 97.0137C389.34 97.0137 412.84 102.68 429.507 114.014C452.507 130.014 464.007 153.847 464.007 185.514C464.007 203.847 459.507 220.347 450.507 235.014C441.507 249.347 427.34 259.847 408.007 266.514C395.34 270.847 381.674 273.014 367.007 273.014L476.007 430.514H451.007L333.007 253.014V430.514H311.007V97.0137H359.007ZM770.269 430.514H746.269L631.269 143.014L515.269 430.514H491.269L631.769 87.0137L770.269 430.514ZM1612.79 430.514H1590.79V97.0137H1612.79V430.514ZM2386.97 430.514H2362.97L2247.97 143.014L2131.97 430.514H2107.97L2248.47 87.0137L2386.97 430.514ZM193.077 264.014L173.618 283.473L154.159 264.014L173.618 244.555L193.077 264.014ZM333.007 253.014H365.007C388.674 253.014 407.174 247.014 420.507 235.014C434.174 223.014 441.007 206.347 441.007 185.014C441.007 157.014 431.174 137.68 411.507 127.014C399.84 120.347 382.84 117.014 360.507 117.014H333.007V253.014ZM2436.3 59.459L2416.84 78.918L2402.79 64.8643H40V54.0547H2402.79L2416.84 40L2436.3 59.459Z" fill="white"/>
</g>
<defs>
<filter id="filter0_d_133_203" x="0" y="0" width="2476.3" height="528.027" filterUnits="userSpaceOnUse" color-interpolation-filters="sRGB">
<feFlood flood-opacity="0" result="BackgroundImageFix"/>
<feColorMatrix in="SourceAlpha" type="matrix" values="0 0 0 0 0 0 0 0 0 0 0 0 0 0 0 0 0 0 127 0" result="hardAlpha"/>
<feOffset/>
<feGaussianBlur stdDeviation="20"/>
<feComposite in2="hardAlpha" operator="out"/>
<feColorMatrix type="matrix" values="0 0 0 0 0 0 0 0 0 0 0 0 0 0 0 0 0 0 0.25 0"/>
<feBlend mode="normal" in2="BackgroundImageFix" result="effect1_dropShadow_133_203"/>
<feBlend mode="normal" in="SourceGraphic" in2="effect1_dropShadow_133_203" result="shape"/>
</filter>
</defs>
</svg>
